<svg width="25" height="24" viewBox="0 0 25 24" fill="none" xmlns="http://www.w3.org/2000/svg">
<path d="M3.62195 6H5.62195H21.6219" stroke="#444545" stroke-width="2" stroke-linecap="round" stroke-linejoin="round"/>
<path d="M8.62195 6V4C8.62195 3.46957 8.83266 2.96086 9.20774 2.58579C9.58281 2.21071 10.0915 2 10.6219 2H14.6219C15.1524 2 15.6611 2.21071 16.0362 2.58579C16.4112 2.96086 16.6219 3.46957 16.6219 4V6M19.6219 6V20C19.6219 20.5304 19.4112 21.0391 19.0362 21.4142C18.6611 21.7893 18.1524 22 17.6219 22H7.62195C7.09152 22 6.58281 21.7893 6.20773 21.4142C5.83266 21.0391 5.62195 20.5304 5.62195 20V6H19.6219Z" stroke="#444545" stroke-width="2" stroke-linecap="round" stroke-linejoin="round"/>
<path d="M10.6219 11V17" stroke="#444545" stroke-width="2" stroke-linecap="round" stroke-linejoin="round"/>
<path d="M14.6219 11V17" stroke="#444545" stroke-width="2" stroke-linecap="round" stroke-linejoin="round"/>
</svg>
